HIERARCHY
ROOT joint_Root
{
	OFFSET 0.0 0.0 0.0
	CHANNELS 6 Xposition Yposition Zposition Zrotation Xrotation Yrotation 
	JOINT Hips
	{
		OFFSET -0.726466 93.3139 -2.00062
		CHANNELS 6 Xposition Yposition Zposition Zrotation Xrotation Yrotation 
		JOINT Spine
		{
			OFFSET 15.7357 0.0 0.0
			CHANNELS 6 Xposition Yposition Zposition Zrotation Xrotation Yrotation 
			JOINT Chest
			{
				OFFSET 8.98455 -0.406207 0.0
				CHANNELS 6 Xposition Yposition Zposition Zrotation Xrotation Yrotation 
				JOINT Neck
				{
					OFFSET 16.3773 0.0 0.0
					CHANNELS 6 Xposition Yposition Zposition Zrotation Xrotation Yrotation 
					JOINT Head
					{
						OFFSET 6.45672 0.0 0.0
						CHANNELS 6 Xposition Yposition Zposition Zrotation Xrotation Yrotation 
						End Site
						{
							OFFSET 0.0 0.0 0.0
						}
					}
				}
				JOINT Shoulder_L
				{
					OFFSET 12.9942 -0.242716 4.98039
					CHANNELS 6 Xposition Yposition Zposition Zrotation Xrotation Yrotation 
					JOINT UpperArm_L
					{
						OFFSET 5.34809 0.0 0.0
						CHANNELS 6 Xposition Yposition Zposition Zrotation Xrotation Yrotation 
						JOINT LowerArm_L
						{
							OFFSET 24.3286 1.87007e-05 0.0
							CHANNELS 6 Xposition Yposition Zposition Zrotation Xrotation Yrotation 
							JOINT Hand_L
							{
								OFFSET 22.2916 0.0 0.0
								CHANNELS 6 Xposition Yposition Zposition Zrotation Xrotation Yrotation 
								End Site
								{
									OFFSET 0.0 0.0 0.0
								}
							}
						}
					}
				}
				JOINT Shoulder_R
				{
					OFFSET 12.9945 -0.242716 -4.98039
					CHANNELS 6 Xposition Yposition Zposition Zrotation Xrotation Yrotation 
					JOINT UpperArm_R
					{
						OFFSET -5.34813 0.0 0.0
						CHANNELS 6 Xposition Yposition Zposition Zrotation Xrotation Yrotation 
						JOINT LowerArm_R
						{
							OFFSET -24.3289 0.000322201 0.0
							CHANNELS 6 Xposition Yposition Zposition Zrotation Xrotation Yrotation 
							JOINT Hand_R
							{
								OFFSET -22.2915 -0.000108084 0.0
								CHANNELS 6 Xposition Yposition Zposition Zrotation Xrotation Yrotation 
								End Site
								{
									OFFSET 0.0 0.0 0.0
								}
							}
						}
					}
				}
			}
		}
		JOINT UpperLeg_L
		{
			OFFSET -2.19248 -6.46944 0.0
			CHANNELS 6 Xposition Yposition Zposition Zrotation Xrotation Yrotation 
			JOINT LowerLeg_L
			{
				OFFSET 39.0811 0.0 -1.23785e-05
				CHANNELS 6 Xposition Yposition Zposition Zrotation Xrotation Yrotation 
				JOINT Foot_L
				{
					OFFSET 40.9854 0.0 -1.26872e-05
					CHANNELS 6 Xposition Yposition Zposition Zrotation Xrotation Yrotation 
					JOINT Toes_L
					{
						OFFSET 11.7543 0.0 0.0
						CHANNELS 6 Xposition Yposition Zposition Zrotation Xrotation Yrotation 
						End Site
						{
							OFFSET 0.0 0.0 0.0
						}
					}
				}
			}
		}
		JOINT UpperLeg_R
		{
			OFFSET -2.19251 6.46944 0.0
			CHANNELS 6 Xposition Yposition Zposition Zrotation Xrotation Yrotation 
			JOINT LowerLeg_R
			{
				OFFSET -39.0811 -0.00228153 -0.0401928
				CHANNELS 6 Xposition Yposition Zposition Zrotation Xrotation Yrotation 
				JOINT Foot_R
				{
					OFFSET -40.9854 0.0 0.0
					CHANNELS 6 Xposition Yposition Zposition Zrotation Xrotation Yrotation 
					JOINT Toes_R
					{
						OFFSET -11.7543 0.0 0.0
						CHANNELS 6 Xposition Yposition Zposition Zrotation Xrotation Yrotation 
						End Site
						{
							OFFSET 0.0 0.0 0.0
						}
					}
				}
			}
		}
	}
}
MOTION
Frames:	7
Frame Time:	0.0333333
0.000000 0.000000 0.000000 0.000000 0.000000 -0.000000 -0.358680 92.165300 0.310624 88.110400 -2.434730 4.508390 15.735700 0.000005 -0.000001 75.404000 85.635300 -73.972500 8.984550 -0.406207 -0.000000 0.712595 -2.287120 2.875380 16.377300 -0.000001 -0.000001 4.279750 -1.727790 -0.908187 6.456720 -0.000001 -0.000000 2.405640 -0.009022 4.686020 12.994200 -0.242716 4.980390 -87.647800 -7.171830 -71.788000 5.348090 -0.000007 -0.000001 -80.789500 -26.315000 -89.131900 24.328600 0.000019 0.000005 7.624660 0.328073 -87.550900 22.291600 -0.000001 0.000005 20.040600 5.596710 -11.148000 12.994500 -0.242716 -4.980390 87.761300 6.752640 -71.609700 -5.348130 -0.000001 -0.000004 -65.236000 37.588800 -14.669200 -24.328900 0.000322 -0.000009 2.196970 7.408100 -16.577100 -22.291500 -0.000108 -0.000004 9.727690 5.411420 -3.312410 -2.192480 -6.469440 -0.000000 -175.686000 -7.070250 -1.243700 39.081100 -0.000007 -0.000012 -0.115203 0.271007 23.030000 40.985400 -0.000006 -0.000013 -0.212705 2.418720 -67.394600 11.754300 -0.000000 0.000003 -0.000053 -0.000596 -16.600700 -2.192510 6.469440 -0.000001 179.194000 11.767900 -179.666000 -39.081100 -0.002282 -0.040193 -0.034762 0.102957 20.298800 -40.985400 0.000008 0.000006 3.326110 7.589320 -66.578100 -11.754300 -0.000006 -0.000006 -0.007629 -0.084980 -20.033200
0.000000 0.000000 0.000000 0.000000 0.000000 -0.000000 -0.357446 92.172300 0.336934 88.178600 -2.391160 4.544850 15.735700 0.000005 -0.000001 75.464600 85.621900 -74.059600 8.984550 -0.406207 -0.000000 0.740286 -2.282930 2.822810 16.377300 -0.000001 -0.000001 4.274210 -1.705420 -0.947845 6.456720 -0.000001 -0.000000 2.430690 0.019516 4.706520 12.994200 -0.242716 4.980390 -87.633300 -7.194900 -71.737600 5.348090 -0.000007 -0.000001 -80.868300 -26.357400 -89.194000 24.328600 0.000019 0.000005 7.588730 0.319905 -87.600300 22.291600 -0.000001 0.000005 20.008100 5.596220 -11.119200 12.994500 -0.242716 -4.980390 87.761600 6.763990 -71.640900 -5.348130 -0.000001 -0.000004 -65.315100 37.630700 -14.551800 -24.328900 0.000322 -0.000009 2.193370 7.463430 -16.436000 -22.291500 -0.000108 -0.000004 9.742010 5.409240 -3.240060 -2.192480 -6.469440 -0.000000 -175.758000 -7.054560 -1.135160 39.081100 -0.000007 -0.000012 -0.111816 0.264580 22.909800 40.985400 -0.000006 -0.000013 -0.203046 2.441090 -67.352300 11.754300 -0.000000 0.000003 -0.000045 -0.000516 -16.597600 -2.192510 6.469440 -0.000001 179.108000 11.822900 -179.588000 -39.081100 -0.002282 -0.040193 -0.034086 0.101327 20.262800 -40.985400 0.000008 0.000006 3.267110 7.615020 -66.575200 -11.754300 -0.000006 -0.000006 -0.007628 -0.084971 -20.032800
0.000000 0.000000 0.000000 0.000000 0.000000 -0.000000 -0.359846 92.162900 0.335895 88.150200 -2.351050 4.515520 15.735700 0.000005 -0.000001 75.619400 85.630500 -74.198200 8.984550 -0.406207 -0.000000 0.729511 -2.256890 2.855020 16.377300 -0.000001 -0.000001 4.295160 -1.691900 -0.961265 6.456720 -0.000001 -0.000000 2.442860 -0.000160 4.616740 12.994200 -0.242716 4.980390 -87.636700 -7.174000 -71.712600 5.348090 -0.000007 -0.000001 -80.879400 -26.415300 -89.132900 24.328600 0.000019 0.000005 7.771040 0.316375 -87.683000 22.291600 -0.000001 0.000005 20.088000 5.595690 -11.088000 12.994500 -0.242716 -4.980390 87.770100 6.731260 -71.623300 -5.348130 -0.000001 -0.000004 -65.394900 37.585800 -14.397200 -24.328900 0.000322 -0.000009 2.187500 7.473860 -16.372900 -22.291500 -0.000108 -0.000004 9.728710 5.410500 -3.281970 -2.192480 -6.469440 -0.000000 -175.739000 -6.993120 -1.226600 39.081100 -0.000007 -0.000012 -0.113664 0.267655 23.009300 40.985400 -0.000006 -0.000013 -0.210552 2.406110 -67.391800 11.754300 -0.000000 0.000003 -0.000041 -0.000479 -16.596200 -2.192510 6.469440 -0.000001 179.146000 11.791600 -179.643000 -39.081100 -0.002282 -0.040193 -0.036063 0.106390 20.313600 -40.985400 0.000008 0.000006 3.265810 7.537020 -66.599400 -11.754300 -0.000006 -0.000006 -0.007789 -0.086300 -20.087100
0.000000 0.000000 0.000000 0.000000 0.000000 -0.000000 -0.363580 92.164100 0.348794 88.177600 -2.329730 4.564960 15.735700 0.000005 -0.000001 75.901600 85.612000 -74.492100 8.984550 -0.406207 -0.000000 0.775297 -2.222890 2.832100 16.377300 -0.000001 -0.000001 4.296320 -1.680100 -0.995422 6.456720 -0.000001 -0.000000 2.510400 -0.003349 4.633390 12.994200 -0.242716 4.980390 -87.636600 -7.160670 -71.680300 5.348090 -0.000007 -0.000001 -80.805800 -26.454900 -88.916400 24.328600 0.000019 0.000005 7.979770 0.294957 -87.896900 22.291600 -0.000001 0.000005 20.144300 5.593700 -10.972800 12.994500 -0.242716 -4.980390 87.763900 6.747440 -71.616200 -5.348130 -0.000001 -0.000004 -65.423200 37.494000 -14.241400 -24.328900 0.000322 -0.000009 2.204320 7.576060 -16.282600 -22.291500 -0.000108 -0.000004 9.702880 5.408760 -3.224240 -2.192480 -6.469440 -0.000000 -175.750000 -6.977940 -1.142730 39.081100 -0.000007 -0.000012 -0.114942 0.271276 22.962800 40.985400 -0.000006 -0.000013 -0.211074 2.443130 -67.381400 11.754300 -0.000000 0.000003 -0.000048 -0.000546 -16.598800 -2.192510 6.469440 -0.000001 179.099000 11.831200 -179.582000 -39.081100 -0.002282 -0.040193 -0.036720 0.108156 20.315200 -40.985400 0.000008 0.000006 3.278980 7.595480 -66.615300 -11.754300 -0.000006 -0.000006 -0.007516 -0.084036 -19.994700
0.000000 0.000000 0.000000 0.000000 0.000000 -0.000000 -0.371298 92.155500 0.355894 88.165800 -2.296360 4.574990 15.735700 0.000005 -0.000001 75.986400 85.604600 -74.573200 8.984550 -0.406207 -0.000000 0.792908 -2.213910 2.839840 16.377300 -0.000001 -0.000001 4.324160 -1.696040 -0.973620 6.456720 -0.000001 -0.000000 2.567460 -0.030732 4.588180 12.994200 -0.242716 4.980390 -87.649000 -7.129650 -71.696200 5.348090 -0.000007 -0.000001 -80.560400 -26.569300 -88.356800 24.328600 0.000019 0.000005 8.003890 0.230947 -88.358200 22.291600 -0.000001 0.000005 20.154200 5.594040 -10.992700 12.994500 -0.242716 -4.980390 87.763700 6.751700 -71.625600 -5.348130 -0.000001 -0.000004 -65.406200 37.433600 -14.118600 -24.328900 0.000322 -0.000009 2.196050 7.613000 -16.150500 -22.291500 -0.000108 -0.000004 9.662990 5.408780 -3.224920 -2.192480 -6.469440 -0.000000 -175.726000 -7.002770 -1.163830 39.081100 -0.000007 -0.000012 -0.114179 0.268595 23.030300 40.985400 -0.000006 -0.000013 -0.194876 2.522310 -67.418300 11.754300 -0.000000 0.000003 -0.000052 -0.000581 -16.600100 -2.192510 6.469440 -0.000001 179.113000 11.858800 -179.580000 -39.081100 -0.002282 -0.040193 -0.037900 0.111147 20.348400 -40.985400 0.000008 0.000006 3.199130 7.543310 -66.624200 -11.754300 -0.000006 -0.000006 -0.007609 -0.084810 -20.026200
0.000000 0.000000 0.000000 0.000000 0.000000 -0.000000 -0.371752 92.156700 0.354392 88.178800 -2.273300 4.584900 15.735700 0.000005 -0.000001 75.970300 85.592100 -74.568100 8.984550 -0.406207 -0.000000 0.816435 -2.221400 2.818360 16.377300 -0.000001 -0.000001 4.258810 -1.703720 -0.952111 6.456720 -0.000001 -0.000000 2.722470 -0.029814 4.640540 12.994200 -0.242716 4.980390 -87.682300 -7.045540 -71.738300 5.348090 -0.000007 -0.000001 -79.960300 -26.777300 -87.379000 24.328600 0.000019 0.000005 8.094140 0.120621 -89.152200 22.291600 -0.000001 0.000005 20.117800 5.592360 -10.896000 12.994500 -0.242716 -4.980390 87.755600 6.778840 -71.632100 -5.348130 -0.000001 -0.000004 -65.404500 37.265400 -14.055000 -24.328900 0.000322 -0.000009 2.237580 7.886430 -15.902500 -22.291500 -0.000108 -0.000004 9.704570 5.408630 -3.220270 -2.192480 -6.469440 -0.000000 -175.759000 -6.917040 -1.152370 39.081100 -0.000007 -0.000012 -0.113590 0.267410 23.014800 40.985400 -0.000006 -0.000013 -0.212916 2.417330 -67.408000 11.754300 -0.000000 0.000003 -0.000052 -0.000582 -16.600100 -2.192510 6.469440 -0.000001 179.102000 11.842400 -179.567000 -39.081100 -0.002282 -0.040193 -0.037063 0.108849 20.355300 -40.985400 0.000008 0.000006 3.254740 7.515650 -66.643700 -11.754300 -0.000006 -0.000006 -0.007561 -0.084409 -20.009900
0.000000 0.000000 0.000000 0.000000 0.000000 -0.000000 -0.376077 92.146200 0.351949 88.202100 -2.276340 4.609300 15.735700 0.000005 -0.000001 76.098200 85.570000 -74.707700 8.984550 -0.406207 -0.000000 0.863718 -2.211630 2.795820 16.377300 -0.000001 -0.000001 4.229970 -1.768230 -0.889031 6.456720 -0.000001 -0.000000 2.724080 -0.113971 4.651300 12.994200 -0.242716 4.980390 -87.737400 -6.892310 -71.776400 5.348090 -0.000007 -0.000001 -78.953900 -26.990900 -85.801500 24.328600 0.000019 0.000005 7.914820 -0.057443 -90.414000 22.291600 -0.000001 0.000005 20.114300 5.589750 -10.748200 12.994500 -0.242716 -4.980390 87.747000 6.785500 -71.583000 -5.348130 -0.000001 -0.000004 -65.346200 37.227300 -14.039600 -24.328900 0.000322 -0.000009 2.216830 7.909690 -15.718400 -22.291500 -0.000108 -0.000004 9.768400 5.406720 -3.157810 -2.192480 -6.469440 -0.000000 -175.761000 -6.988630 -1.157930 39.081100 -0.000007 -0.000012 -0.114172 0.268036 23.072100 40.985400 -0.000006 -0.000013 -0.203850 2.485090 -67.433300 11.754300 -0.000000 0.000003 -0.000045 -0.000514 -16.597500 -2.192510 6.469440 -0.000001 179.068000 11.838700 -179.592000 -39.081100 -0.002282 -0.040193 -0.041363 0.119915 20.437000 -40.985400 0.000008 0.000006 3.118060 7.513680 -66.652800 -11.754300 -0.000006 -0.000006 -0.007597 -0.084712 -20.022200
